<svg width="65" height="65" viewBox="0 0 65 65" fill="none"
  xmlns="http://www.w3.org/2000/svg">
  <path d="M62.7464 2.83079C63.0935 2.20021 62.8991 1.55563 62.2744 1.12123C61.8163 0.81295 61.4276 0.742882 61.0111 0.897022C60.7335 1.00912 54.6392 6.95054 48.5588 13.0461C45.1715 16.4372 43.6445 18.0627 43.5889 18.3289C43.3391 19.4639 44.755 20.5289 45.7823 19.9684C46.2821 19.7021 62.4826 3.34926 62.7464 2.83079Z" fill="white"/>
  <path d="M33.4827 4.21805C33.4271 3.92378 33.2467 3.53143 33.0523 3.34926C32.8441 3.12506 32.5109 2.98492 32.0806 2.94289L31.442 2.85881L28.7905 5.50723C27.3328 6.96455 26.0557 8.3378 25.9307 8.562C25.4726 9.45882 26.2084 10.6079 27.2495 10.6079C27.7215 10.6079 27.9436 10.4257 30.6646 7.6792L33.566 4.75053L33.4827 4.21805Z" fill="white"/>
  <path d="M51.71 4.3862C51.71 3.99384 51.6129 3.75563 51.3075 3.44735C50.9743 3.11104 50.7799 3.04098 50.2385 3.04098H49.5861L46.171 6.44607C40.6042 11.9951 31.8307 20.655 21.5162 30.8002C18.5731 33.6869 12.3678 39.6983 11.6043 40.399C10.4659 41.4359 10.2854 42.3888 11.0906 43.2015C11.4793 43.5939 11.6598 43.678 12.1734 43.678C12.5899 43.678 12.9231 43.5799 13.2146 43.3557C13.6172 43.0474 44.1859 12.5837 49.1835 7.49703C51.5573 5.07282 51.71 4.89066 51.71 4.3862Z" fill="white"/>
  <path d="M38.4525 8.50595C38.9661 8.30977 39.1189 7.45499 38.7163 7.04862C38.508 6.82442 37.9527 6.76837 37.5779 6.92251C37.2447 7.06264 37.1198 7.65117 37.3419 8.07155C37.564 8.51996 37.9805 8.68812 38.4525 8.50595Z" fill="white"/>
  <path d="M62.441 12.4575C64.5789 10.3556 64.8982 9.66901 64.1069 8.78621C63.8709 8.51997 63.5377 8.32378 63.2323 8.28175C62.6215 8.18365 62.1217 8.53397 60.3587 10.3556C59.137 11.6028 59.0676 11.7149 59.0676 12.2754C59.0676 13.1442 59.6368 13.6907 60.5391 13.6907C61.1638 13.6907 61.2194 13.6486 62.441 12.4575Z" fill="white"/>
  <path d="M33.1078 13.9009C33.1078 13.4525 33.0245 13.2282 32.7469 12.934C32.3582 12.5416 31.5947 12.4435 31.1227 12.7238C30.734 12.962 30.4425 13.6767 30.5257 14.1811C30.7062 15.162 31.8862 15.5544 32.6636 14.8818C33.0384 14.5735 33.1078 14.4053 33.1078 13.9009Z" fill="white"/>
  <path d="M22.1409 14.7696C22.1409 14.2091 22.0715 14.013 21.7383 13.6767C21.419 13.3684 21.1969 13.2703 20.7665 13.2703C20.2251 13.2703 20.128 13.3544 18.0179 15.4843C16.8101 16.6894 14.7139 18.7493 13.3673 20.0384C12.0207 21.3276 10.8685 22.5607 10.7852 22.7709C10.3965 23.934 11.7847 25.1951 12.8259 24.6206C12.9647 24.5506 15.1165 22.4627 17.6153 19.9684L22.1409 15.4423V14.7696Z" fill="white"/>
  <path d="M26.5832 20.0244C26.5832 19.534 26.4999 19.3378 26.1806 19.0015C25.5559 18.3709 24.8479 18.427 23.9872 19.1837C22.2936 20.655 0.928825 41.7442 0.665062 42.1926C0.415182 42.627 0.456831 43.2716 0.76224 43.7901C1.06765 44.3085 1.51188 44.5187 2.24764 44.5187C2.73352 44.5187 3.19163 44.0703 11.993 35.2283C17.0739 30.1276 22.4463 24.7467 23.9178 23.2894C26.5554 20.641 26.5832 20.613 26.5832 20.0244Z" fill="white"/>
  <path d="M53.5841 21.4677C53.834 20.9072 53.7091 20.3888 53.2371 19.9263C53.0011 19.6881 52.6401 19.52 52.2792 19.4779L51.6962 19.3939L48.4061 22.6728C46.6014 24.4805 45.0882 25.9799 45.0466 26.0219C44.8244 26.2321 38.4664 32.5098 35.1208 35.8308C25.9446 44.9251 24.1954 46.6767 23.9456 47.013C23.779 47.2232 23.6679 47.5735 23.6679 47.9098C23.6679 48.3582 23.7651 48.5684 24.1399 48.9468C24.5425 49.3531 24.7091 49.4232 25.2366 49.4232H25.8613L36.3979 38.8856C42.1868 33.0843 48.3783 26.8907 50.1691 25.1111C51.946 23.3455 53.487 21.692 53.5841 21.4677Z" fill="white"/>
  <path d="M63.857 21.1034C63.857 20.627 63.7737 20.4588 63.3989 20.1225C63.0657 19.8142 62.8158 19.7162 62.3855 19.7162C61.8333 19.7162 61.7341 19.8131 58.2803 23.1892L58.2208 23.2474C56.2356 25.1811 54.5142 26.9467 54.4171 27.1569C53.9451 28.0678 54.7641 29.2448 55.8608 29.2448C56.3189 29.2448 56.6243 28.9646 60.0949 25.4614C63.8015 21.734 63.857 21.6779 63.857 21.1034Z" fill="white"/>
  <path d="M40.7431 24.7748C40.7431 24.1442 40.3266 23.5276 39.7574 23.3034C39.452 23.1773 39.1189 23.0792 39.0078 23.0792C38.7718 23.0792 38.1193 23.6397 36.3702 25.3913C33.8575 27.8996 24.7507 36.8397 20.7527 40.7353C18.5037 42.9213 16.0605 45.3034 15.3247 46.0181C14.0059 47.3073 13.9781 47.3213 13.2979 47.3213C12.9231 47.3213 12.2428 47.1812 11.7847 47.027C10.7436 46.6487 8.35582 46.5085 7.10642 46.7608C5.74596 47.027 4.45491 47.7837 3.17775 49.0729C1.45635 50.7964 0.76224 52.45 0.76224 54.8181C0.76224 57.0041 1.42858 58.8117 2.78904 60.3251C4.28832 61.9926 5.99584 62.8194 8.28641 62.9595C10.8685 63.1277 12.9508 62.343 14.5889 60.6054C16.2132 58.8678 16.8656 57.2563 16.8656 54.9582C16.8656 53.599 16.6713 52.6321 16.1993 51.7073C15.7134 50.7684 15.7828 50.4041 16.6296 49.4652C17.0183 49.0168 21.1275 44.8691 25.7503 40.2448C38.0638 27.9276 40.7431 25.1531 40.7431 24.7748Z" fill="white"/>
  <path d="M4.82973 32.6079C5.42667 32.6079 5.84314 31.7811 5.50996 31.2487C5.37114 31.0244 4.7742 30.8143 4.51044 30.8983C3.63586 31.1646 3.9135 32.6079 4.82973 32.6079Z" fill="white"/>
  <path d="M51.3213 33.3225C51.9044 32.6639 51.7794 31.6971 51.0576 31.3608C50.4745 31.0945 50.0442 31.1786 49.5444 31.683C48.9614 32.2716 48.9336 32.734 49.475 33.3366C50.0164 33.9531 50.766 33.9531 51.3213 33.3225Z" fill="white"/>
  <path d="M60.6641 35.3264C61.1222 34.8359 61.1361 34.0232 60.7057 33.5467C60.3031 33.0983 59.8034 33.0002 59.2481 33.2385C58.7206 33.4627 58.5123 33.827 58.5123 34.4996C58.5123 35.6066 59.9144 36.1391 60.6641 35.3264Z" fill="white"/>
  <path d="M46.9346 37.4563C47.0595 36.9238 46.8929 36.4053 46.4348 35.9569C46.1294 35.6346 45.9211 35.5506 45.4353 35.5506C44.8661 35.5506 44.7967 35.6066 43.1447 37.2882C41.6315 38.8155 41.4372 39.0678 41.4372 39.4882C41.4372 40.1047 41.8814 40.8474 42.3812 41.0296C43.2002 41.3519 43.6028 41.1276 45.2687 39.4181C46.1294 38.5353 46.879 37.6525 46.9346 37.4563Z" fill="white"/>
  <path d="M56.1523 39.362C56.1523 38.9276 56.0552 38.6754 55.7775 38.3531C55.2778 37.7926 54.5698 37.6805 54.0006 38.0448C53.7785 38.199 52.6957 39.2359 51.6129 40.3429C49.6832 42.3047 49.6277 42.3888 49.6277 42.9633C49.6277 43.4398 49.711 43.6499 50.0303 43.9582C50.4606 44.4066 50.9882 44.5888 51.474 44.4767C51.6406 44.4206 52.7651 43.3837 53.9728 42.1646C56.0829 40.0066 56.1523 39.9226 56.1523 39.362Z" fill="white"/>
  <path d="M38.8551 45.6958C39.1605 45.4015 39.1327 44.7569 38.8273 44.4767C38.2582 43.9582 37.4113 44.3226 37.4113 45.0792C37.4113 45.3034 37.5085 45.5837 37.6334 45.6958C37.7445 45.8219 38.0222 45.92 38.2443 45.92C38.4664 45.92 38.744 45.8219 38.8551 45.6958Z" fill="white"/>
  <path d="M46.2266 48.1621C46.1016 47.9378 45.824 47.6576 45.6019 47.5315C45.1715 47.3073 44.8383 47.2792 44.4774 47.4334C44.3386 47.4894 43.1725 48.5824 41.8675 49.8576L39.4937 52.1697V52.8423C39.4937 53.3888 39.5631 53.585 39.8963 53.9213C40.3821 54.3977 41.1595 54.4678 41.7148 54.0754C41.9092 53.9493 43.0475 52.8143 44.2553 51.5671C46.5875 49.157 46.6569 49.0168 46.2266 48.1621Z" fill="white"/>
  <path d="M33.7325 49.6194C33.6354 49.3671 33.3577 49.0589 33.1217 48.9468C32.5803 48.6525 32.15 48.6665 31.7196 48.9608C31.5253 49.0869 29.5679 50.9926 27.3467 53.1926C25.1394 55.3926 22.1409 58.3633 20.711 59.7926C19.2673 61.2219 18.0317 62.5391 17.9623 62.7213C17.768 63.1977 17.9484 63.9404 18.351 64.3328C18.7258 64.7111 19.4477 64.9213 19.892 64.7672C20.0585 64.7251 23.2098 61.6283 26.9164 57.8869C34.1629 50.5722 34.1351 50.6003 33.7325 49.6194Z" fill="white"/>
  <path d="M21.7244 53.9773C22.5157 53.557 22.6684 52.6321 22.0437 51.9595C21.5717 51.441 21.0997 51.3289 20.5444 51.5812C19.7115 51.9455 19.531 53.1086 20.1835 53.7812C20.6416 54.2436 21.1136 54.2996 21.7244 53.9773Z" fill="white"/>
  <path d="M36.6895 56.2054C36.5923 55.9952 36.3563 55.7149 36.1619 55.5748C35.7038 55.2385 35.2041 55.1544 34.8015 55.3086C34.3156 55.5187 31.081 58.7697 30.8173 59.3162C30.6368 59.6945 30.6229 59.8907 30.7479 60.3391C30.9561 61.1238 31.4836 61.5162 32.2333 61.4321C32.7747 61.3761 32.9829 61.2079 34.7459 59.4283C36.8144 57.3544 37.0504 56.948 36.6895 56.2054Z" fill="white"/>
</svg>
