<svg width="32" height="32" viewBox="0 0 32 32" fill="none"
  xmlns="http://www.w3.org/2000/svg">
  <path d="M18.4 4.6C18.4 4.6 18.4685 6.30248 17.8 7C16.8273 8.01503 15.4575 6.37127 14.2 7C13.6 7.3 13 10 11.2 11.8C10.3716 12.6284 9.62843 9.17157 8.8 10C7.6 11.2 7.62843 13.0284 8.8 14.2C10 15.4 9.94257 15.2948 11.2 15.4C12.3906 15.4996 13 14.2 14.2 15.4C15.4 16.6 13.8743 18.2371 15.4 19C16.7898 19.6949 18.4 19 19 20.8C19.5692 22.5076 17.8 23.2 16 24.4C14.8971 25.1352 13.6 27.4 13.6 27.4M4.32509 13.214C4.32509 13.214 7 16.6 8.8 17.2C9.71653 17.5055 8.02547 18.6498 8.2 19.6C8.47931 21.1207 10.0395 20.7989 10.6 22C11.2936 23.4863 10.6 26.2 10.6 26.2M22 5.8C22 5.8 21.4 9.4 23.2 10C23.6971 10.1657 24.0295 9.77048 24.4 9.4C25 8.8 25.6 8.8 25.6 8.8M26.8 10.6C26.8 10.6 25.8417 11.5734 25.6 11.8C24.3673 12.9556 22.6801 12.6533 22 14.2C21.3331 15.7167 21.4804 17.1786 22.6 18.4C23.3081 19.1725 24.5458 18.6557 25 19.6C25.547 20.7371 24.1774 21.3959 23.8 22.6C23.5111 23.5219 23.2 25.6 23.2 25.6M28 16C28 22.6274 22.6274 28 16 28C9.37258 28 4 22.6274 4 16C4 9.37258 9.37258 4 16 4C22.6274 4 28 9.37258 28 16Z" stroke="white" stroke-width=".5"/>
</svg>
