<svg width="32" height="32" viewBox="0 0 32 32" fill="none"
  xmlns="http://www.w3.org/2000/svg">
  <path d="M15.5484 20.5854C13.0542 20.5854 11.4839 19.0151 11.4839 16.5209C11.4839 14.0267 13.9574 11.5531 16.4516 11.5531C18.9458 11.5531 21.4194 13.3596 21.871 16.0693C22.3226 17.8757 21.4193 23.2952 16.4516 24.1984M14.4427 13.5566C14.4427 13.5566 15.0968 12.908 16.4516 12.908C17.8065 12.908 20.5161 14.2628 20.0645 17.8757C19.1613 22.3918 15.0968 22.3918 15.0968 22.3918C12.1847 22.678 8.77421 19.8673 8.77421 16.5209C8.77421 12.0313 12.4137 8.39181 16.9032 8.39181C19.7977 8.39181 22.7142 9.90454 24.4213 12.1825C24.5053 12.2947 24.5864 12.4087 24.6644 12.5244M6.96776 10.6499C4.25806 16.9726 8.21237 23.771 14.1936 24.1983C14.4419 24.216 14.6833 24.224 14.9179 24.2228M30 13.8112C30 13.8112 27.7419 5.68228 18.7097 4.32729C14.5306 3.70034 10.7533 5.10191 8.38128 8.21019M2 21.0371C2 21.0371 8.11061 30.8924 18.7097 27.3596C22.7742 26.0049 25.9355 21.0104 25.9355 16.5209C25.9355 16.0593 25.8875 15.6067 25.7964 15.1661M7.87096 4.3274C7.78905 4.40915 7.41935 4.20253 7.41935 4.3274C7.41935 4.45226 7.76939 4.30509 7.8513 4.38684C7.933 4.46838 7.74641 4.77901 7.87096 4.77901C7.99551 4.77901 7.78926 4.40894 7.87096 4.3274ZM7.87096 4.3274C7.95266 4.24585 7.74641 3.87578 7.87096 3.87578C7.99551 3.87578 7.78926 4.24585 7.87096 4.3274ZM7.87096 4.3274C7.95287 4.40915 8.32258 4.20253 8.32258 4.3274C8.32258 4.45226 7.95287 4.24564 7.87096 4.3274ZM22.3226 7.94031C22.2407 8.02206 21.871 7.81544 21.871 7.94031C21.871 8.06517 22.221 7.918 22.3029 7.99975C22.3846 8.0813 22.198 8.39192 22.3226 8.39192C22.4471 8.39192 22.2409 8.02185 22.3226 7.94031ZM22.3226 7.94031C22.4043 7.85876 22.198 7.48869 22.3226 7.48869C22.4471 7.48869 22.2409 7.85876 22.3226 7.94031ZM22.3226 7.94031C22.4045 8.02206 22.7742 7.81544 22.7742 7.94031C22.7742 8.06517 22.4045 7.85856 22.3226 7.94031ZM6.06451 21.4887C5.9826 21.5705 5.6129 21.3639 5.6129 21.4887C5.6129 21.6136 5.96294 21.4664 6.04485 21.5482C6.12655 21.6297 5.93996 21.9403 6.06451 21.9403C6.18906 21.9403 5.98281 21.5703 6.06451 21.4887ZM6.06451 21.4887C6.14621 21.4072 5.93996 21.0371 6.06451 21.0371C6.18906 21.0371 5.98281 21.4072 6.06451 21.4887ZM6.06451 21.4887C6.14642 21.5705 6.51613 21.3639 6.51613 21.4887C6.51613 21.6136 6.14642 21.407 6.06451 21.4887ZM24.129 26.9081C24.0471 26.9898 23.6774 26.7832 23.6774 26.9081C23.6774 27.033 24.0274 26.8858 24.1094 26.9675C24.1911 27.0491 24.0045 27.3597 24.129 27.3597C24.2536 27.3597 24.0473 26.9896 24.129 26.9081ZM24.129 26.9081C24.2107 26.8266 24.0045 26.4565 24.129 26.4565C24.2536 26.4565 24.0473 26.8266 24.129 26.9081ZM24.129 26.9081C24.2109 26.9898 24.5806 26.7832 24.5806 26.9081C24.5806 27.033 24.2109 26.8263 24.129 26.9081ZM18.2581 16.7468C18.2581 17.8692 17.3482 18.779 16.2258 18.779C15.1034 18.779 14.1935 17.8692 14.1935 16.7468C14.1935 15.6244 15.1034 14.7145 16.2258 14.7145C17.3482 14.7145 18.2581 15.6244 18.2581 16.7468ZM27.2903 13.8113C27.2903 14.809 26.4815 15.6177 25.4839 15.6177C24.4862 15.6177 23.6774 14.809 23.6774 13.8113C23.6774 12.8136 24.4862 12.0048 25.4839 12.0048C26.4815 12.0048 27.2903 12.8136 27.2903 13.8113ZM9.2258 9.29515C9.2258 10.2928 8.41703 11.1016 7.41935 11.1016C6.42168 11.1016 5.6129 10.2928 5.6129 9.29515C5.6129 8.29747 6.42168 7.48869 7.41935 7.48869C8.41703 7.48869 9.2258 8.29747 9.2258 9.29515ZM16.4516 24.65C16.4516 25.1489 16.0472 25.5533 15.5484 25.5533C15.0495 25.5533 14.6452 25.1489 14.6452 24.65C14.6452 24.1512 15.0495 23.7468 15.5484 23.7468C16.0472 23.7468 16.4516 24.1512 16.4516 24.65Z" stroke="white" stroke-width="0.5"/>
</svg>
