<svg width="219" height="58" viewBox="0 0 219 58" fill="none"
  xmlns="http://www.w3.org/2000/svg">
  <path d="M29.864 28.432C29.864 31.008 29.528 33.304 28.856 35.32C28.184 37.336 27.1947 39.0347 25.888 40.416C24.6187 41.76 23.0507 42.7867 21.184 43.496C19.3547 44.2053 17.2827 44.56 14.968 44.56C12.8027 44.56 10.8053 44.2053 8.976 43.496C7.14667 42.7867 5.57867 41.76 4.272 40.416C2.96533 39.0347 1.93867 37.336 1.192 35.32C0.482667 33.304 0.128 31.008 0.128 28.432C0.128 24.9973 0.725333 22.104 1.92 19.752C3.11467 17.3627 4.832 15.552 7.072 14.32C9.34933 13.088 12.0373 12.472 15.136 12.472C17.9733 12.472 20.4933 13.088 22.696 14.32C24.936 15.552 26.6907 17.3627 27.96 19.752C29.2293 22.104 29.864 24.9973 29.864 28.432ZM11.608 28.432C11.608 30.1867 11.72 31.68 11.944 32.912C12.168 34.144 12.5413 35.0773 13.064 35.712C13.5867 36.3093 14.2587 36.608 15.08 36.608C15.9387 36.608 16.592 36.3093 17.04 35.712C17.5253 35.0773 17.8613 34.144 18.048 32.912C18.272 31.68 18.384 30.1867 18.384 28.432C18.384 26.6773 18.272 25.2027 18.048 24.008C17.8613 22.8133 17.5067 21.9173 16.984 21.32C16.4987 20.7227 15.8453 20.424 15.024 20.424C13.792 20.424 12.9147 21.096 12.392 22.44C11.8693 23.784 11.608 25.7813 11.608 28.432ZM56.2623 12.472C59.473 12.472 61.937 13.8533 63.6543 16.616C65.409 19.3413 66.2863 23.28 66.2863 28.432C66.2863 31.9413 65.8196 34.9093 64.8863 37.336C63.9903 39.7253 62.7583 41.536 61.1903 42.768C59.6223 43.9627 57.849 44.56 55.8703 44.56C54.5263 44.56 53.3876 44.3733 52.4543 44C51.521 43.6267 50.7556 43.1787 50.1583 42.656C49.5983 42.096 49.1316 41.536 48.7583 40.976H48.4783C48.553 41.6853 48.609 42.4507 48.6463 43.272C48.721 44.0933 48.7583 45.0453 48.7583 46.128V57.44H37.4463V13.032H46.6303L48.2543 16.952H48.7583C49.2063 16.1307 49.7476 15.384 50.3823 14.712C51.0543 14.04 51.857 13.4987 52.7903 13.088C53.761 12.6773 54.9183 12.472 56.2623 12.472ZM51.7263 20.872C50.9796 20.872 50.3823 21.1333 49.9343 21.656C49.4863 22.1413 49.169 22.8693 48.9823 23.84C48.833 24.8107 48.7583 26.0427 48.7583 27.536V28.376C48.7583 30.0187 48.833 31.4 48.9823 32.52C49.169 33.64 49.4863 34.4987 49.9343 35.096C50.3823 35.656 50.9983 35.936 51.7823 35.936C52.417 35.936 52.9583 35.6933 53.4063 35.208C53.8543 34.6853 54.1903 33.864 54.4143 32.744C54.6756 31.624 54.8063 30.1493 54.8063 28.32C54.8063 25.5947 54.5263 23.672 53.9663 22.552C53.4063 21.432 52.6596 20.872 51.7263 20.872ZM87.698 12.472C90.61 12.472 93.13 12.9947 95.258 14.04C97.386 15.0853 99.01 16.6533 100.13 18.744C101.287 20.8347 101.866 23.4667 101.866 26.64V31.4H84.282C84.3567 33.0053 84.8607 34.3307 85.794 35.376C86.7647 36.4213 88.2207 36.944 90.162 36.944C91.9913 36.944 93.6527 36.7573 95.146 36.384C96.6767 36.0107 98.2447 35.4133 99.85 34.592V42.264C98.4687 43.048 96.9007 43.6267 95.146 44C93.4287 44.3733 91.2073 44.56 88.482 44.56C85.5327 44.56 82.882 44.0187 80.53 42.936C78.178 41.816 76.3113 40.08 74.93 37.728C73.5487 35.376 72.858 32.3707 72.858 28.712C72.858 24.9787 73.474 21.9173 74.706 19.528C75.9753 17.1387 77.7113 15.3653 79.914 14.208C82.154 13.0507 84.7487 12.472 87.698 12.472ZM88.202 19.752C87.194 19.752 86.354 20.144 85.682 20.928C85.01 21.712 84.618 22.9627 84.506 24.68H91.786C91.786 23.7467 91.6367 22.9253 91.338 22.216C91.0393 21.4693 90.6287 20.872 90.106 20.424C89.5833 19.976 88.9487 19.752 88.202 19.752ZM128.675 12.472C131.661 12.472 134.107 13.368 136.011 15.16C137.952 16.952 138.923 19.8453 138.923 23.84V44H127.611V27.088C127.611 25.0347 127.387 23.4853 126.939 22.44C126.491 21.3947 125.744 20.872 124.699 20.872C123.093 20.872 122.029 21.6933 121.507 23.336C120.984 24.9787 120.723 27.3493 120.723 30.448V44H109.411V13.032H117.867L119.435 17.12H119.771C120.405 16.1493 121.133 15.328 121.955 14.656C122.776 13.9467 123.728 13.4053 124.811 13.032C125.931 12.6587 127.219 12.472 128.675 12.472ZM158.675 13.032V44H147.363V13.032H158.675ZM153.075 0.543999C154.68 0.543999 156.062 0.861331 157.219 1.496C158.414 2.13066 159.011 3.4 159.011 5.304C159.011 7.13333 158.414 8.384 157.219 9.056C156.062 9.69066 154.68 10.008 153.075 10.008C151.432 10.008 150.032 9.69066 148.875 9.056C147.718 8.384 147.139 7.13333 147.139 5.304C147.139 3.4 147.718 2.13066 148.875 1.496C150.032 0.861331 151.432 0.543999 153.075 0.543999ZM190.226 44H165.306V37.896L176.674 21.208H165.922V13.032H189.554V19.64L178.858 35.824H190.226V44ZM215.219 12.472C215.853 12.472 216.488 12.5093 217.123 12.584C217.795 12.6587 218.261 12.7333 218.523 12.808L217.459 22.888C217.085 22.8133 216.619 22.7387 216.059 22.664C215.536 22.5893 214.659 22.552 213.427 22.552C213.016 22.552 212.512 22.6267 211.915 22.776C211.317 22.888 210.72 23.1493 210.123 23.56C209.563 23.9707 209.077 24.5867 208.667 25.408C208.293 26.2293 208.107 27.3493 208.107 28.768V44H196.795V13.032H205.139L206.931 17.96H207.491C208.013 16.952 208.685 16.0373 209.507 15.216C210.328 14.3573 211.224 13.6853 212.195 13.2C213.203 12.7147 214.211 12.472 215.219 12.472Z" fill="#DCDCDC"/>
</svg>
