<svg width="32" height="32" viewBox="0 0 32 32" fill="none"
  xmlns="http://www.w3.org/2000/svg">
  <path d="M11.5777 6.68319C11.1305 7.7335 10.8371 8.9831 10.8371 10.454C10.8371 11.3894 10.8671 12.2956 10.9314 13.1601M11.5777 6.68319C13.0097 3.3197 16.0187 2 16.0187 2C16.0187 2 18.9592 3.44447 20.4099 6.68319M11.5777 6.68319C11.5777 6.68319 14.2604 7.42663 16.0187 7.4234C17.7577 7.42021 20.4099 6.68319 20.4099 6.68319M20.4099 6.68319C20.8849 7.74367 21.2002 8.99654 21.2002 10.454C21.2002 12.1265 21.0953 13.7407 20.8571 15.1957M11.1612 15.1957C11.1612 15.1957 14.0998 15.937 16.0187 15.9359C17.9302 15.9348 20.8571 15.1957 20.8571 15.1957M11.1612 15.1957C11.0599 14.5498 10.9841 13.869 10.9314 13.1601M11.1612 15.1957C11.2177 15.5558 11.2821 15.9051 11.3549 16.2423M20.8571 15.1957C20.3967 18.0076 19.4383 20.2245 17.7766 21.1174H14.2231C12.7704 20.3479 11.8609 18.5877 11.3549 16.2423M10.9314 13.1601C10.9314 13.1601 7.50605 14.2141 7.50616 15.9359C7.50628 17.6014 8.61649 21.4875 8.61649 21.4875H9.17165V17.4163C9.17165 16.4803 11.3549 16.2423 11.3549 16.2423M21.0686 13.3451C21.0686 13.3451 24.494 14.3992 24.4938 16.1209C24.4937 17.7864 23.3835 21.6726 23.3835 21.6726H22.8283L22.8283 17.6014C22.8283 16.6654 20.6451 16.4274 20.6451 16.4274M14.1682 20.9323C14.1682 20.9323 13.0355 22.4167 12.8728 23.4438C12.671 24.7184 13.7981 26.6162 13.7981 26.6162L14.9084 24.5012L15.6486 30L16.944 25.5587L17.8693 27.2506C17.8693 27.2506 19.063 24.2683 18.9796 23.3381C18.8962 22.4078 17.8693 20.9323 17.8693 20.9323M18.4245 11.6796C18.4245 13.0083 17.3474 14.0853 16.0187 14.0853C14.6901 14.0853 13.613 13.0083 13.613 11.6796C13.613 10.351 14.6901 9.27394 16.0187 9.27394C17.3474 9.27394 18.4245 10.351 18.4245 11.6796Z" stroke="white" stroke-linecap="round" stroke-linejoin="round" stroke-width=".5"/>
</svg>
