<svg width="32" height="32" viewBox="0 0 32 32" fill="none"
  xmlns="http://www.w3.org/2000/svg">
  <path d="M14.3406 18.692L13.0574 17.1579M14.3406 18.692C14.695 19.1156 15.3256 19.1717 15.7492 18.8174L22.6525 13.0429C22.6525 13.0429 23.4196 12.4013 22.1363 10.8672C20.853 9.33304 20.0861 9.97475 20.0861 9.97475L13.1828 15.7493C12.7592 16.1036 12.703 16.7343 13.0574 17.1579M14.3406 18.692L13.5735 19.3335L12.2903 17.7994L13.0574 17.1579M5.35795 7.95347L9.19309 4.7454L14.326 10.8816L10.4909 14.0897L5.35795 7.95347ZM25.875 24.6881L22.0399 27.8962L16.907 21.76L20.7421 18.5519L25.875 24.6881ZM7.65903 6.02863L6.892 6.67024L13.3081 14.3405L14.0752 13.6989L7.65903 6.02863ZM24.341 25.9714L23.5739 26.613L17.1578 18.9427L17.9248 18.3011L24.341 25.9714ZM9.70929 6.92107L10.3509 7.6881L8.04981 9.61294L7.4082 8.84591L9.70929 6.92107ZM21.5237 25.7205L20.8821 24.9535L23.1832 23.0287L23.8248 23.7957L21.5237 25.7205ZM11.6341 9.22216L12.2757 9.98919L9.97465 11.914L9.33304 11.147L11.6341 9.22216ZM19.5988 23.4195L18.9572 22.6524L21.2583 20.7276L21.8999 21.4946L19.5988 23.4195ZM12.1649 19.2081C13.5823 20.9025 14.156 22.7574 13.0055 23.7198C12.5289 24.1185 11.2812 22.8274 9.86377 21.1329C8.44636 19.4384 7.39602 17.9822 7.87259 17.5836C9.02313 16.6212 10.7474 17.5136 12.1649 19.2081Z" stroke="white" stroke-width=".5"/>
</svg>
