<svg width="32" height="32" viewBox="0 0 32 32" fill="none"
  xmlns="http://www.w3.org/2000/svg">
  <path d="M11.6246 7.17031C6.90508 4.76787 3.41475 4.3698 2.3116 5.8805C0.698065 8.09016 5.51023 14.3506 13.0599 19.8635C20.6095 25.3764 28.0377 28.0543 29.6513 25.8446C30.7159 24.3867 29.3139 21.3582 25.8434 17.7517M10.2062 8.00324C6.87571 6.40265 4.36446 5.8729 3.66621 6.82912C2.47026 8.46691 7.04586 13.8438 13.8861 18.8387C20.7263 23.8335 27.241 26.555 28.4369 24.9172C29.118 23.9846 27.9274 21.8394 25.5127 19.2426M25.8434 16.7597C25.8434 22.421 21.254 27.0104 15.5926 27.0104C9.93134 27.0104 5.34195 22.421 5.34195 16.7597C5.34195 11.0984 9.93134 6.50895 15.5926 6.50895C21.254 6.50895 25.8434 11.0984 25.8434 16.7597Z" stroke="white" stroke-linecap="round" stroke-linejoin="round" stroke-width=".5"/>
</svg>
